<?xml version="1.0" encoding="UTF-8" standalone="no"?>
<svg
   xmlns:dc="http://purl.org/dc/elements/1.1/"
   xmlns:cc="http://creativecommons.org/ns#"
   xmlns:rdf="http://www.w3.org/1999/02/22-rdf-syntax-ns#"
   xmlns:svg="http://www.w3.org/2000/svg"
   xmlns="http://www.w3.org/2000/svg"
   height="75"
   width="75"
   version="1.1"
   id="svg2"
   y="0px"
   x="0px"
   viewBox="0 0 75 75">
  <metadata
     id="metadata18">
    <rdf:RDF>
      <cc:Work
         rdf:about="">
        <dc:format>image/svg+xml</dc:format>
        <dc:type
           rdf:resource="http://purl.org/dc/dcmitype/StillImage" />
        <dc:title></dc:title>
      </cc:Work>
    </rdf:RDF>
  </metadata>
  <defs
     id="defs16" />
  <g
     style="fill:#000000;fill-rule:evenodd"
     id="g4"
     transform="translate(18.5,3.5)">
    <path
       id="path6"
       d="m 28,44 4,0 c 1.104569,0 2,-0.895431 2,-2 l 0,-26 c 0,-1.104569 -0.895431,-2 -2,-2 -1.10457,0 -2,0.895431 -2,2 L 30,40 8,40 8,16 C 8,14.895431 7.1045695,14 6,14 4.8954305,14 4,14.895431 4,16 l 0,26 c 0,1.104569 0.8954305,2 2,2 l 4,0 0,10 -2,0 c -1.1045695,0 -2,0.895431 -2,2 l 0,10 c 0,1.104569 0.8954305,2 2,2 l 8,0 c 1.104569,0 2,-0.895431 2,-2 l 0,-10 c 0,-1.104569 -0.895431,-2 -2,-2 l -2,0 0,-10 10,0 0,6 -2,0 c -1.10457,0 -2,0.895431 -2,2 l 0,10 c 0,1.104569 0.89543,2 2,2 l 8,0 c 1.104569,0 2,-0.895431 2,-2 l 0,-10 c 0,-1.104569 -0.895431,-2 -2,-2 l -2,0 0,-6 z m 0,10 0,6 -4,0 0,-6 4,0 z m -14,4 0,6 -4,0 0,-6 4,0 z" />
    <path
       id="path8"
       d="m 27,28 c 0,-4.418278 -3.581722,-8 -8,-8 -4.418278,0 -8,3.581722 -8,8 0,4.418278 3.581722,8 8,8 4.418278,0 8,-3.581722 8,-8 z m -12,0 c 0,-2.209139 1.790861,-4 4,-4 2.209139,0 4,1.790861 4,4 0,2.209139 -1.790861,4 -4,4 -2.209139,0 -4,-1.790861 -4,-4 z M 8.9817765,12.016902 19,4.5100098 29.052993,12 8.9817765,12.016902 Z M 17.8,0.4 1.8,12.4 C 0.26238033,13.553215 1.0779754,16 3,16 l 32,0 c 1.922025,0 2.73762,-2.446785 1.2,-3.6 l -16,-12 c -0.711111,-0.53333333 -1.688889,-0.53333333 -2.4,0 z" />
  </g>
</svg>
